<?xml version="1.0" encoding="UTF-8"?><?xml-stylesheet type="text/css" href="../../css/styles.css" ?>
<!DOCTYPE svg PUBLIC "-//W3C//DTD SVG 1.1//EN" "http://www.w3.org/Graphics/SVG/1.1/DTD/svg11.dtd">
<svg xmlns="http://www.w3.org/2000/svg" xml:space="preserve" width="1024px" height="1024px" shape-rendering="geometricPrecision" text-rendering="geometricPrecision" image-rendering="optimizeQuality" fill-rule="evenodd" clip-rule="evenodd" viewBox="0 0 10240 10240" xmlns:xlink="http://www.w3.org/1999/xlink">
	<title>arrow_shuffle icon</title>
	<desc>arrow_shuffle icon from the IconExperience.com O-Collection. Copyright by INCORS GmbH (www.incors.com).</desc>
	<path id="curve1" fill="rgba(255,255,255,0.75)" d="M6720 7680c-804,0 -1426,-432 -1980,-1024 247,-336 470,-703 688,-1062l31 -51c416,490 834,857 1262,857l640 0 -687 -687c-47,-47 -60,-113 -35,-174 25,-61 82,-99 148,-99l839 7c176,1 328,63 453,187l1186 1186c124,124 125,328 0,453l-1186 1186c-125,125 -276,189 -453,187l-839 -7c-66,-1 -123,-38 -148,-99 -25,-61 -12,-128 35,-174l687 -687 -640 0zm-3228 -2598c-518,-670 -1038,-1242 -1572,-1242l-640 0 0 -1280 640 0c955,0 1653,610 2286,1373 -158,239 -309,486 -457,730 -87,143 -173,285 -258,420z"/>
	<path id="curve0" fill="#FFF" d="M8078 4619l1186 -1186c125,-125 124,-328 0,-453l-1186 -1186c-124,-124 -277,-186 -453,-187l-839 -7c-66,-1 -123,38 -148,99 -25,61 -12,128 35,174l687 687 -640 0c-1317,0 -1997,1119 -2677,2238 -492,809 -983,1618 -1587,1618l-1280 0 0 1280 1280 0c1317,0 1997,-1119 2677,-2238 492,-809 983,-1618 1587,-1618l640 0 -687 687c-47,47 -60,113 -35,174 25,61 82,98 148,99l839 7c176,1 328,-63 453,-187z"/>
</svg>
