<?xml version="1.0" encoding="UTF-8"?><?xml-stylesheet type="text/css" href="../../css/styles.css" ?>
<!DOCTYPE svg PUBLIC "-//W3C//DTD SVG 1.1//EN" "http://www.w3.org/Graphics/SVG/1.1/DTD/svg11.dtd">
<svg xmlns="http://www.w3.org/2000/svg" xml:space="preserve" width="1024px" height="1024px" shape-rendering="geometricPrecision" text-rendering="geometricPrecision" image-rendering="optimizeQuality" fill-rule="evenodd" clip-rule="evenodd" viewBox="0 0 10240 10240" xmlns:xlink="http://www.w3.org/1999/xlink">
	<title>delete icon</title>
	<desc>delete icon from the IconExperience.com O-Collection. Copyright by INCORS GmbH (www.incors.com).</desc>
	<path id="curve0" class="primaryIconColor" d="M1273 7156l2036 -2036 -2036 -2036c-125,-125 -125,-328 0,-453l1358 -1358c125,-125 328,-125 453,0l2036 2036 2036 -2036c125,-125 328,-125 453,0l1358 1358c125,125 125,328 0,453l-2036 2036 2036 2036c125,125 125,328 0,453l-1358 1358c-125,125 -328,125 -453,0l-2036 -2036 -2036 2036c-125,125 -328,125 -453,0l-1358 -1358c-125,-125 -125,-328 0,-453z"/>
</svg>
