<?xml version="1.0" encoding="UTF-8"?><?xml-stylesheet type="text/css" href="../../css/styles.css" ?>
<!DOCTYPE svg PUBLIC "-//W3C//DTD SVG 1.1//EN" "http://www.w3.org/Graphics/SVG/1.1/DTD/svg11.dtd">
<svg xmlns="http://www.w3.org/2000/svg" xml:space="preserve" width="1024px" height="1024px" shape-rendering="geometricPrecision" text-rendering="geometricPrecision" image-rendering="optimizeQuality" fill-rule="evenodd" clip-rule="evenodd" viewBox="0 0 10240 10240" xmlns:xlink="http://www.w3.org/1999/xlink">
	<title>home icon</title>
	<desc>home icon from the IconExperience.com O-Collection. Copyright by INCORS GmbH (www.incors.com).</desc>
	<path id="curve1" class="primaryIconColor" d="M8320 6099l0 3501 -1280 0 0 -3200 -1920 0 0 3200 -3200 0 0 -3501 3200 -3200 3200 3200zm-5760 301l1920 0 0 1280 -1920 0 0 -1280z"/>
	<path id="curve0" class="secondaryIconColor" d="M866 5873l187 187c125,125 328,125 453,0l3614 -3614 3614 3614c125,125 328,125 453,0l187 -187c125,-125 125,-328 0,-453l-4027 -4027c-125,-125 -328,-125 -453,0l-4027 4027c-125,125 -125,328 0,453z"/>
</svg>
