<?xml version="1.0" encoding="UTF-8"?>
<?xml-stylesheet type="text/css" href="../../css/styles.css" ?>
<!DOCTYPE svg PUBLIC "-//W3C//DTD SVG 1.1//EN" "http://www.w3.org/Graphics/SVG/1.1/DTD/svg11.dtd">
<svg xmlns="http://www.w3.org/2000/svg" xml:space="preserve" width="1024px" height="1024px" shape-rendering="geometricPrecision" text-rendering="geometricPrecision" image-rendering="optimizeQuality" fill-rule="evenodd" clip-rule="evenodd" viewBox="0 0 10240 10240" xmlns:xlink="http://www.w3.org/1999/xlink">
	<title>magnifying_glass icon</title>
	<desc>magnifying_glass icon from the IconExperience.com O-Collection. Copyright by INCORS GmbH (www.incors.com).</desc>
	<path id="curve1" class="whiteIconColor" d="M5986 6814l827 -827c125,-125 328,-125 453,0l2427 2427c125,125 125,328 0,453l-827 827c-125,125 -328,125 -453,0l-2427 -2427c-125,-125 -125,-328 0,-453z"/>
	<path id="curve0" class="whiteIconColor" d="M6082 5442l412 412 -640 640 -412 -412c-534,401 -1197,638 -1916,638 -1764,0 -3194,-1430 -3194,-3194 0,-1764 1430,-3194 3194,-3194 1764,0 3194,1430 3194,3194 0,719 -237,1382 -638,1916zm-2556 -4471c1411,0 2555,1144 2555,2555 0,1411 -1144,2555 -2555,2555 -1411,0 -2555,-1144 -2555,-2555 0,-1411 1144,-2555 2555,-2555z"/>
</svg>
