<?xml version="1.0" encoding="UTF-8"?><?xml-stylesheet type="text/css" href="../../css/styles.css" ?>
<!DOCTYPE svg PUBLIC "-//W3C//DTD SVG 1.1//EN" "http://www.w3.org/Graphics/SVG/1.1/DTD/svg11.dtd">
<svg xmlns="http://www.w3.org/2000/svg" xml:space="preserve" width="1024px" height="1024px" shape-rendering="geometricPrecision" text-rendering="geometricPrecision" image-rendering="optimizeQuality" fill-rule="evenodd" clip-rule="evenodd" viewBox="0 0 10240 10240" xmlns:xlink="http://www.w3.org/1999/xlink">
	<title>sign_stop icon</title>
	<desc>sign_stop icon from the IconExperience.com O-Collection. Copyright by INCORS GmbH (www.incors.com).</desc>
	<path id="curve0" class="secondaryIconColor" d="M734 3106l2373 -2373c62,-62 138,-94 226,-94l3575 0c88,0 164,31 226,94l2373 2373c62,62 94,138 94,226l0 3575c0,88 -31,164 -94,226l-2373 2373c-62,62 -138,94 -226,94l-3575 0c-88,0 -164,-31 -226,-94l-2373 -2373c-62,-62 -94,-138 -94,-226l0 -3575c0,-88 31,-164 94,-226zm546 359l0 3310 2185 2185 3310 0 2185 -2185 0 -3310 -2185 -2185 -3310 0 -2185 2185zm640 265l0 2780 1810 1810 2780 0 1810 -1810 0 -2780 -1810 -1810 -2780 0 -1810 1810z"/>
</svg>
