<?xml version="1.0" encoding="UTF-8"?>
<?xml-stylesheet type="text/css" href="../../css/styles.css" ?>
<!DOCTYPE svg PUBLIC "-//W3C//DTD SVG 1.1//EN" "http://www.w3.org/Graphics/SVG/1.1/DTD/svg11.dtd">
<svg xmlns="http://www.w3.org/2000/svg" xml:space="preserve" width="1024px" height="1024px" shape-rendering="geometricPrecision" text-rendering="geometricPrecision" image-rendering="optimizeQuality" fill-rule="evenodd" clip-rule="evenodd" viewBox="0 0 10240 10240" xmlns:xlink="http://www.w3.org/1999/xlink">
	<title>users_relation icon</title>
	<desc>users_relation icon from the IconExperience.com O-Collection. Copyright by INCORS GmbH (www.incors.com).</desc>
	<path id="curve8" class="secondaryIconColor" d="M6446 1539c-56,227 -61,467 -15,696 -814,-417 -1808,-417 -2622,0 46,-230 41,-469 -15,-696 843,-343 1809,-343 2652,0z"/>
	<path id="curve7" class="secondaryIconColor" d="M7929 5439c219,4 442,-9 660,-36 -190,1100 -890,2025 -1848,2522 -128,-166 -297,-296 -464,-420 34,-36 67,-74 98,-113 777,-377 1359,-1092 1554,-1954z"/>
	<path id="curve6" class="secondaryIconColor" d="M3865 7393c31,39 64,77 98,113 -168,124 -336,254 -464,420 -958,-498 -1658,-1422 -1848,-2522 217,27 440,40 660,36 195,862 777,1577 1554,1954z"/>
	<path id="curve5" class="primaryIconColor" d="M9600 4555c0,405 -960,565 -1600,565 -640,0 -1600,-160 -1600,-565 0,-802 242,-985 694,-1316 258,177 569,281 906,281 336,0 648,-104 906,-281 453,332 694,513 694,1316z"/>
	<path id="curve4" class="primaryIconColor" d="M8000 640c707,0 1280,573 1280,1280 0,707 -573,1280 -1280,1280 -707,0 -1280,-573 -1280,-1280 0,-707 573,-1280 1280,-1280z"/>
	<path id="curve3" class="primaryIconColor" d="M6720 9035c0,405 -960,565 -1600,565 -640,0 -1600,-160 -1600,-565 0,-802 242,-985 694,-1316 258,177 569,281 906,281 336,0 648,-104 906,-281 453,332 694,513 694,1316z"/>
	<path id="curve2" class="primaryIconColor" d="M5120 5120c707,0 1280,573 1280,1280 0,707 -573,1280 -1280,1280 -707,0 -1280,-573 -1280,-1280 0,-707 573,-1280 1280,-1280z"/>
	<path id="curve1" class="primaryIconColor" d="M3840 4555c0,405 -960,565 -1600,565 -640,0 -1600,-160 -1600,-565 0,-802 242,-985 694,-1316 258,177 569,281 906,281 336,0 648,-104 906,-281 453,332 694,513 694,1316z"/>
	<path id="curve0" class="primaryIconColor" d="M2240 640c707,0 1280,573 1280,1280 0,707 -573,1280 -1280,1280 -707,0 -1280,-573 -1280,-1280 0,-707 573,-1280 1280,-1280z"/>
</svg>
