<?xml version="1.0" encoding="UTF-8"?><?xml-stylesheet type="text/css" href="../../css/styles.css" ?>
<!DOCTYPE svg PUBLIC "-//W3C//DTD SVG 1.1//EN" "http://www.w3.org/Graphics/SVG/1.1/DTD/svg11.dtd">
<svg xmlns="http://www.w3.org/2000/svg" xml:space="preserve" width="1024px" height="1024px" shape-rendering="geometricPrecision" text-rendering="geometricPrecision" image-rendering="optimizeQuality" fill-rule="evenodd" clip-rule="evenodd" viewBox="0 0 10240 10240" xmlns:xlink="http://www.w3.org/1999/xlink">
	<title>message icon</title>
	<desc>message icon from the IconExperience.com O-Collection. Copyright by INCORS GmbH (www.incors.com).</desc>
	<path id="curve1" class="primaryIconColor" d="M5120 640c2474,0 4480,1576 4480,3520 0,911 -440,1740 -1162,2365 -107,93 -173,203 -205,341 -319,1393 -1486,2414 -3112,2414 213,-213 354,-475 449,-761 66,-199 37,-398 -84,-570 -120,-171 -298,-266 -508,-272 -2408,-59 -4338,-1612 -4338,-3518 0,-1944 2006,-3520 4480,-3520zm1119 7774c680,-300 1185,-886 1369,-1690 62,-271 200,-501 410,-682 556,-481 941,-1133 941,-1881 0,-217 -32,-431 -96,-638 -205,-669 -708,-1206 -1291,-1572 -727,-456 -1599,-670 -2453,-670 -854,0 -1726,214 -2453,670 -584,366 -1087,903 -1291,1572 -63,207 -96,422 -96,638 0,217 33,431 96,638 452,1477 2191,2205 3617,2240 412,10 778,206 1016,543 175,248 254,540 230,832z"/>
	<path id="curve0" class="secondaryIconColor" d="M3200 2560l3840 0 0 640 -3840 0 0 -640zm0 2560l3840 0 0 640 -3840 0 0 -640zm0 -1280l3840 0 0 640 -3840 0 0 -640z"/>
</svg>
