<?xml version="1.0" encoding="UTF-8"?><?xml-stylesheet type="text/css" href="../../css/styles.css" ?>
<!DOCTYPE svg PUBLIC "-//W3C//DTD SVG 1.1//EN" "http://www.w3.org/Graphics/SVG/1.1/DTD/svg11.dtd">
<svg xmlns="http://www.w3.org/2000/svg" xml:space="preserve" width="1024px" height="1024px" shape-rendering="geometricPrecision" text-rendering="geometricPrecision" image-rendering="optimizeQuality" fill-rule="evenodd" clip-rule="evenodd" viewBox="0 0 10240 10240" xmlns:xlink="http://www.w3.org/1999/xlink">
	<title>check icon</title>
	<desc>check icon from the IconExperience.com O-Collection. Copyright by INCORS GmbH (www.incors.com).</desc>
	<!-- <path id="curve0" fill="#DDD"
		d="
		M3100 4050
		l3934 -3934
		c125,-125 328,-125 453,0
		l1147 1147
		c125,125 125,328 0,453
		l-5307 5307
		c-125,125 -328,125 -453,0
		l-2747 -2747
		c-125,-125 -125,-328 0,-453
		l1147 -1147
		c125,-125 328,-125 453,0
		l1374 1374
		z"/> -->
		<path id="curve0" fill="rgba(255,255,255,0.8)"
			d="
			M4000 4000
			l3434 -3434
			c125,-125 328,-125 453,0
			l647 647
			c125,125 125,328 0,453
			l-4307 4307
			c-125,125 -328,125 -453,0
			l-2147 -2147
			c-125,-125 -125,-328 0,-453
			l647 -647
			c125,-125 328,-125 453,0
			l874 874
			z"/>
		<path id="curve0" fill="#FFF"
			d="
			M4000 7700
			l3434 -3434
			c125,-125 328,-125 453,0
			l647 647
			c125,125 125,328 0,453
			l-4307 4307
			c-125,125 -328,125 -453,0
			l-2147 -2147
			c-125,-125 -125,-328 0,-453
			l647 -647
			c125,-125 328,-125 453,0
			l874 874
			z"/>
</svg>
