<?xml version="1.0" encoding="UTF-8"?><?xml-stylesheet type="text/css" href="../../css/styles.css" ?>
<!DOCTYPE svg PUBLIC "-//W3C//DTD SVG 1.1//EN" "http://www.w3.org/Graphics/SVG/1.1/DTD/svg11.dtd">
<svg xmlns="http://www.w3.org/2000/svg" xml:space="preserve" width="1024px" height="1024px" shape-rendering="geometricPrecision" text-rendering="geometricPrecision" image-rendering="optimizeQuality" fill-rule="evenodd" clip-rule="evenodd" viewBox="0 0 10240 10240" xmlns:xlink="http://www.w3.org/1999/xlink">
	<title>navigate_right2 icon</title>
	<desc>navigate_right2 icon from the IconExperience.com O-Collection. Copyright by INCORS GmbH (www.incors.com).</desc>
	<path id="curve1" fill="#FFF" d="M2389 1273l3620 3620c125,125 125,328 0,453l-3620 3620c-125,125 -328,125 -453,0l-905 -905c-125,-125 -125,-328 0,-453l2489 -2489 -2489 -2489c-125,-125 -125,-328 0,-453l905 -905c125,-125 328,-125 453,0z"/>
	<path id="curve0" fill="#FFF" d="M5909 1273l3620 3620c125,125 125,328 0,453l-3620 3620c-125,125 -328,125 -453,0l-905 -905c-125,-125 -125,-328 0,-453l2489 -2489 -2489 -2489c-125,-125 -125,-328 0,-453l905 -905c125,-125 328,-125 453,0z"/>
</svg>
