<?xml version="1.0" encoding="UTF-8"?><?xml-stylesheet type="text/css" href="../../css/styles.css" ?>
<!DOCTYPE svg PUBLIC "-//W3C//DTD SVG 1.1//EN" "http://www.w3.org/Graphics/SVG/1.1/DTD/svg11.dtd">
<svg xmlns="http://www.w3.org/2000/svg" xml:space="preserve" width="5120px" height="1024px" shape-rendering="geometricPrecision" text-rendering="geometricPrecision" image-rendering="optimizeQuality" fill-rule="evenodd" clip-rule="evenodd" viewBox="0 0 10240 10240" xmlns:xlink="http://www.w3.org/1999/xlink">
	<title>star icon</title>
	<desc>star icon from the IconExperience.com O-Collection. Copyright by INCORS GmbH (www.incors.com).</desc>
	<path id="curve0" class="starIconColor"
		d="
		M -15000 1082
		l 687 2148
		c  43,135
		  164,223
		  305,222
		l 2245 -4
		c 280,-1
		  518,172
		  605,439
		   87,267
		   -4,547
		 -230,713
		l -1825 1332
		c -114,83
		  -159,223
		  -116,357
		l 698 2155
		c   87,267
		    -5,548
		  -232,713
		  -227,165
		  -522,164
		  -748,-3
		l -1806 -1329
		c -115,-84
		  -265,-84
		  -379,0
		l -1806 1329
		c -226,166
		  -521,167
		  -748,3
		  -227,-165
		  -319,-446
		  -232,-713
		l 698 -2155
		c 43,-134 -2,-274 -116,-357
		l -1825 -1332
		c -226,-165 -317,-446 -230,-713 87,-267 325,-440 605,-439
		l 2245 4
		c 142,0 262,-88 305,-222
		l 687 -2148
		c 86,-268 324,-442 605,-442 281,0 519,174 605,442
		z "/>
		<path id="curve0" class="starNoIconColor" d="M-5000 1082l687 2148c43,135 164,223 305,222l2245 -4c280,-1 518,172 605,439 87,267 -4,547 -230,713l-1825 1332c-114,83 -159,223 -116,357l698 2155c87,267 -5,548 -232,713 -227,165 -522,164 -748,-3l-1806 -1329c-115,-84 -265,-84 -379,0l-1806 1329c-226,166 -521,167 -748,3 -227,-165 -319,-446 -232,-713l698 -2155c43,-134 -2,-274 -116,-357l-1825 -1332c-226,-165 -317,-446 -230,-713 87,-267 325,-440 605,-439l2245 4c142,0 262,-88 305,-222l687 -2148c86,-268 324,-442 605,-442 281,0 519,174 605,442zm-605 210l-682 2132c-128,400 -496,668 -916,667l-2235 -4 1818 1327c335,245 475,677 347,1071l-695 2144 1794 -1320c340,-250 798,-250 1138,0l1794 1320 -695 -2144c-128,-395 12,-827 347,-1071l1818 -1327 -2235 4c-420,1 -788,-267 -916,-667l-682 -2132z"/>
			<path id="curve0" class="starNoIconColor" d="M5000 1082l687 2148c43,135 164,223 305,222l2245 -4c280,-1 518,172 605,439 87,267 -4,547 -230,713l-1825 1332c-114,83 -159,223 -116,357l698 2155c87,267 -5,548 -232,713 -227,165 -522,164 -748,-3l-1806 -1329c-115,-84 -265,-84 -379,0l-1806 1329c-226,166 -521,167 -748,3 -227,-165 -319,-446 -232,-713l698 -2155c43,-134 -2,-274 -116,-357l-1825 -1332c-226,-165 -317,-446 -230,-713 87,-267 325,-440 605,-439l2245 4c142,0 262,-88 305,-222l687 -2148c86,-268 324,-442 605,-442 281,0 519,174 605,442zm-605 210l-682 2132c-128,400 -496,668 -916,667l-2235 -4 1818 1327c335,245 475,677 347,1071l-695 2144 1794 -1320c340,-250 798,-250 1138,0l1794 1320 -695 -2144c-128,-395 12,-827 347,-1071l1818 -1327 -2235 4c-420,1 -788,-267 -916,-667l-682 -2132z"/>
				<path id="curve0" class="starNoIconColor" d="M15000 1082l687 2148c43,135 164,223 305,222l2245 -4c280,-1 518,172 605,439 87,267 -4,547 -230,713l-1825 1332c-114,83 -159,223 -116,357l698 2155c87,267 -5,548 -232,713 -227,165 -522,164 -748,-3l-1806 -1329c-115,-84 -265,-84 -379,0l-1806 1329c-226,166 -521,167 -748,3 -227,-165 -319,-446 -232,-713l698 -2155c43,-134 -2,-274 -116,-357l-1825 -1332c-226,-165 -317,-446 -230,-713 87,-267 325,-440 605,-439l2245 4c142,0 262,-88 305,-222l687 -2148c86,-268 324,-442 605,-442 281,0 519,174 605,442zm-605 210l-682 2132c-128,400 -496,668 -916,667l-2235 -4 1818 1327c335,245 475,677 347,1071l-695 2144 1794 -1320c340,-250 798,-250 1138,0l1794 1320 -695 -2144c-128,-395 12,-827 347,-1071l1818 -1327 -2235 4c-420,1 -788,-267 -916,-667l-682 -2132z"/>
					<path id="curve0" class="starNoIconColor" d="M25000 1082l687 2148c43,135 164,223 305,222l2245 -4c280,-1 518,172 605,439 87,267 -4,547 -230,713l-1825 1332c-114,83 -159,223 -116,357l698 2155c87,267 -5,548 -232,713 -227,165 -522,164 -748,-3l-1806 -1329c-115,-84 -265,-84 -379,0l-1806 1329c-226,166 -521,167 -748,3 -227,-165 -319,-446 -232,-713l698 -2155c43,-134 -2,-274 -116,-357l-1825 -1332c-226,-165 -317,-446 -230,-713 87,-267 325,-440 605,-439l2245 4c142,0 262,-88 305,-222l687 -2148c86,-268 324,-442 605,-442 281,0 519,174 605,442zm-605 210l-682 2132c-128,400 -496,668 -916,667l-2235 -4 1818 1327c335,245 475,677 347,1071l-695 2144 1794 -1320c340,-250 798,-250 1138,0l1794 1320 -695 -2144c-128,-395 12,-827 347,-1071l1818 -1327 -2235 4c-420,1 -788,-267 -916,-667l-682 -2132z"/>
</svg>
